<?xml version="1.0" encoding="utf-8" ?>
<svg baseProfile="tiny" height="100%" version="1.2" width="100%" xmlns="http://www.w3.org/2000/svg" xmlns:ev="http://www.w3.org/2001/xml-events" xmlns:xlink="http://www.w3.org/1999/xlink"><defs /><line stroke="rgb(10%,10%,16%)" x1="1.0000in" x2="1.0000in" y1="1.0000in" y2="6.3800in" /><line stroke="rgb(10%,10%,16%)" x1="17.7000in" x2="17.7000in" y1="1.0000in" y2="6.3800in" /><line stroke="rgb(10%,10%,16%)" x1="1.0000in" x2="17.7000in" y1="6.3800in" y2="6.3800in" /><line stroke="rgb(10%,10%,16%)" x1="1.0000in" x2="1.5000in" y1="1.0000in" y2="1.0000in" /><line stroke="rgb(10%,10%,16%)" x1="17.7000in" x2="17.2000in" y1="1.0000in" y2="1.0000in" /><line stroke="rgb(10%,10%,16%)" x1="1.5000in" x2="1.5000in" y1="1.0000in" y2="3.6900in" /><line stroke="rgb(10%,10%,16%)" x1="1.5000in" x2="1.6240in" y1="3.6900in" y2="3.6900in" /><line stroke="rgb(10%,10%,16%)" x1="1.6240in" x2="1.6240in" y1="3.6900in" y2="1.0000in" /><line stroke="rgb(10%,10%,16%)" x1="1.6240in" x2="4.0960in" y1="1.0000in" y2="1.0000in" /><line stroke="rgb(10%,10%,16%)" x1="4.0960in" x2="4.0960in" y1="1.0000in" y2="3.6900in" /><line stroke="rgb(10%,10%,16%)" x1="4.0960in" x2="4.2200in" y1="3.6900in" y2="3.6900in" /><line stroke="rgb(10%,10%,16%)" x1="4.2200in" x2="4.2200in" y1="3.6900in" y2="1.0000in" /><line stroke="rgb(10%,10%,16%)" x1="4.2200in" x2="6.6920in" y1="1.0000in" y2="1.0000in" /><line stroke="rgb(10%,10%,16%)" x1="6.6920in" x2="6.6920in" y1="1.0000in" y2="3.6900in" /><line stroke="rgb(10%,10%,16%)" x1="6.6920in" x2="6.8160in" y1="3.6900in" y2="3.6900in" /><line stroke="rgb(10%,10%,16%)" x1="6.8160in" x2="6.8160in" y1="3.6900in" y2="1.0000in" /><line stroke="rgb(10%,10%,16%)" x1="6.8160in" x2="9.2880in" y1="1.0000in" y2="1.0000in" /><line stroke="rgb(10%,10%,16%)" x1="9.2880in" x2="9.2880in" y1="1.0000in" y2="3.6900in" /><line stroke="rgb(10%,10%,16%)" x1="9.2880in" x2="9.4120in" y1="3.6900in" y2="3.6900in" /><line stroke="rgb(10%,10%,16%)" x1="9.4120in" x2="9.4120in" y1="3.6900in" y2="1.0000in" /><line stroke="rgb(10%,10%,16%)" x1="9.4120in" x2="11.8840in" y1="1.0000in" y2="1.0000in" /><line stroke="rgb(10%,10%,16%)" x1="11.8840in" x2="11.8840in" y1="1.0000in" y2="3.6900in" /><line stroke="rgb(10%,10%,16%)" x1="11.8840in" x2="12.0080in" y1="3.6900in" y2="3.6900in" /><line stroke="rgb(10%,10%,16%)" x1="12.0080in" x2="12.0080in" y1="3.6900in" y2="1.0000in" /><line stroke="rgb(10%,10%,16%)" x1="12.0080in" x2="14.4800in" y1="1.0000in" y2="1.0000in" /><line stroke="rgb(10%,10%,16%)" x1="14.4800in" x2="14.4800in" y1="1.0000in" y2="3.6900in" /><line stroke="rgb(10%,10%,16%)" x1="14.4800in" x2="14.6040in" y1="3.6900in" y2="3.6900in" /><line stroke="rgb(10%,10%,16%)" x1="14.6040in" x2="14.6040in" y1="3.6900in" y2="1.0000in" /><line stroke="rgb(10%,10%,16%)" x1="14.6040in" x2="17.0760in" y1="1.0000in" y2="1.0000in" /><line stroke="rgb(10%,10%,16%)" x1="17.0760in" x2="17.0760in" y1="1.0000in" y2="3.6900in" /><line stroke="rgb(10%,10%,16%)" x1="17.0760in" x2="17.2000in" y1="3.6900in" y2="3.6900in" /><line stroke="rgb(10%,10%,16%)" x1="17.2000in" x2="17.2000in" y1="3.6900in" y2="1.0000in" /></svg>